Coordinates
version=1
nRows=54
nColumns=12
inDegrees=yes

Units are S.I. units (second, meters, Newtons, ...)
Angles are in degrees

endheader
time	SC_y	SC_z	SC_x	AC_y	AC_z	AC_x	GH_y	GH_z	GH_yy	EL_x	PS_y
       0.0              -33.18          2.244          55.74          41.55         -2.273         -14.09         -13.46         -2.509          33.03           23.4          22.55
  0.005607              -33.18          2.248          55.74          41.55         -2.274         -14.08         -13.47         -2.506          33.01          23.41          22.57
   0.01121              -33.18          2.252          55.74          41.55         -2.274         -14.08         -13.48         -2.502           33.0          23.42          22.58
   0.01682              -33.18          2.256          55.75          41.55         -2.275         -14.07         -13.49         -2.498          32.99          23.43           22.6
   0.02243              -33.18          2.261          55.75          41.55         -2.276         -14.07          -13.5         -2.494          32.97          23.45          22.62
   0.02804              -33.18          2.266          55.75          41.55         -2.277         -14.06         -13.51         -2.489          32.96          23.46          22.64
   0.03364              -33.18          2.271          55.76          41.55         -2.277         -14.05         -13.52         -2.484          32.94          23.48          22.66
   0.03925              -33.18          2.277          55.76          41.55         -2.278         -14.05         -13.53         -2.479          32.92           23.5          22.68
   0.04486              -33.17          2.283          55.77          41.55         -2.279         -14.04         -13.54         -2.473           32.9          23.52           22.7
   0.05046              -33.17           2.29          55.77          41.54          -2.28         -14.03         -13.56         -2.467          32.88          23.54          22.73
   0.05607              -33.17          2.297          55.78          41.54         -2.281         -14.02         -13.57         -2.461          32.86          23.56          22.75
   0.06168              -33.17          2.305          55.78          41.54         -2.283         -14.01         -13.59         -2.454          32.84          23.58          22.78
   0.06729              -33.17          2.313          55.79          41.54         -2.284          -14.0         -13.61         -2.447          32.81          23.61          22.81
   0.07289              -33.17          2.322          55.79          41.54         -2.285         -13.99         -13.62         -2.439          32.78          23.63          22.84
    0.0785              -33.16          2.331           55.8          41.54         -2.287         -13.98         -13.64          -2.43          32.75          23.66          22.88
   0.08411              -33.16          2.342          55.81          41.54         -2.288         -13.97         -13.67          -2.42          32.72          23.69          22.92
   0.08971              -33.16          2.353          55.81          41.54          -2.29         -13.95         -13.69          -2.41          32.69          23.73          22.96
   0.09532              -33.16          2.366          55.82          41.53         -2.292         -13.94         -13.72         -2.399          32.65          23.77          23.01
    0.1009              -33.15          2.379          55.83          41.53         -2.294         -13.92         -13.74         -2.387          32.61          23.81          23.06
    0.1065              -33.15          2.394          55.84          41.53         -2.296          -13.9         -13.78         -2.373          32.56          23.85          23.11
    0.1121              -33.15           2.41          55.85          41.53         -2.299         -13.88         -13.81         -2.359          32.51           23.9          23.18
    0.1177              -33.15          2.428          55.87          41.53         -2.301         -13.86         -13.85         -2.343          32.45          23.96          23.24
    0.1234              -33.14          2.448          55.88          41.52         -2.305         -13.83         -13.89         -2.325          32.39          24.02          23.32
     0.129              -33.14           2.47          55.89          41.52         -2.308         -13.81         -13.93         -2.305          32.32          24.08           23.4
    0.1346              -33.13          2.494          55.91          41.52         -2.312         -13.78         -13.99         -2.283          32.25          24.16          23.49
    0.1402              -33.13          2.521          55.93          41.51         -2.316         -13.74         -14.04         -2.258          32.16          24.24          23.59
    0.1458              -33.12          2.552          55.95          41.51          -2.32         -13.71         -14.11         -2.231          32.07          24.33          23.71
    0.1514              -33.11          2.586          55.97           41.5         -2.326         -13.66         -14.18           -2.2          31.96          24.43          23.83
     0.157              -33.11          2.625           56.0           41.5         -2.332         -13.62         -14.26         -2.165          31.84          24.55          23.98
    0.1626               -33.1          2.668          56.03          41.49         -2.338         -13.56         -14.35         -2.125          31.71          24.68          24.14
    0.1682              -33.09          2.719          56.07          41.48         -2.346          -13.5         -14.46          -2.08          31.55          24.84          24.33
    0.1738              -33.07          2.776          56.11          41.48         -2.355         -13.43         -14.58         -2.028          31.37          25.01          24.55
    0.1794              -33.06          2.842          56.15          41.47         -2.365         -13.35         -14.72         -1.968          31.17          25.21          24.79
     0.185              -33.05           2.92           56.2          41.46         -2.377         -13.25         -14.88         -1.898          30.93          25.45          25.08
    0.1906              -33.03           3.01          56.27          41.44         -2.391         -13.14         -15.07         -1.817          30.65          25.72          25.42
    0.1962              -33.01          3.116          56.34          41.43         -2.407         -13.01         -15.29         -1.721          30.32          26.04          25.82
    0.2019              -32.98          3.243          56.43          41.41         -2.426         -12.85         -15.56         -1.606          29.93          26.43          26.29
    0.2075              -32.95          3.394          56.53          41.39          -2.45         -12.66         -15.88         -1.469          29.46          26.88          26.86
    0.2131              -32.91          3.578          56.66          41.36         -2.478         -12.44         -16.26         -1.304          28.89          27.44          27.55
    0.2187              -32.87          3.802          56.81          41.33         -2.512         -12.16         -16.73         -1.101          28.19          28.12          28.39
    0.2243              -32.81          4.078           57.0          41.29         -2.555         -11.82         -17.31        -0.8512          27.33          28.96          29.42
    0.2299              -32.74          4.423          57.24          41.24         -2.608         -11.39         -18.04        -0.5396          26.26           30.0          30.71
    0.2355              -32.65          4.857          57.54          41.18         -2.674         -10.85         -18.95         -0.147          24.92          31.32          32.34
    0.2411              -32.54          5.409          57.92          41.11         -2.759         -10.17         -20.11          0.352           23.2          32.99          34.41
    0.2467               -32.4          6.116          58.41          41.01         -2.867         -9.297         -21.59         0.9907          21.01          35.13          37.05
    0.2523              -32.22          7.023          59.03          40.88         -3.007         -8.176         -23.49           1.81           18.2          37.88          40.45
    0.2579              -31.98          8.181          59.83          40.72         -3.184         -6.743         -25.93          2.857           14.6          41.39          44.79
    0.2635              -31.69          9.638          60.83          40.51         -3.408         -4.942         -28.98          4.174          10.08          45.81          50.24
    0.2691              -31.33          11.41          62.05          40.26          -3.68         -2.746         -32.71          5.778          4.577          51.19          56.89
    0.2747              -30.91          13.47          63.47          39.97         -3.996        -0.2016         -37.03          7.638         -1.807          57.43          64.59
    0.2804              -30.46           15.7           65.0          39.66         -4.338          2.554         -41.71          9.651         -8.719          64.18          72.94
     0.286              -30.01          17.93          66.54          39.35          -4.68          5.309         -46.38          11.66         -15.63          70.93          81.28
    0.2916               -29.6          19.98          67.96          39.06         -4.995          7.854          -50.7          13.52         -22.01          77.17          88.99
    0.2972              -29.24          21.76          69.18          38.81         -5.268          10.05         -54.43          15.13         -27.52          82.55          95.63
